<?xml version="1.0" encoding="UTF-8"?>
<!DOCTYPE svg PUBLIC "-//W3C//DTD SVG 1.1//EN" "http://www.w3.org/Graphics/SVG/1.1/DTD/svg11.dtd">
<svg xmlns="http://www.w3.org/2000/svg" version="1.1" width="8000px" height="4500px" style="shape-rendering:geometricPrecision; text-rendering:geometricPrecision; image-rendering:optimizeQuality; fill-rule:evenodd; clip-rule:evenodd" xmlns:xlink="http://www.w3.org/1999/xlink">
<g><path style="opacity:0.38" fill="#112129" d="M -0.5,-0.5 C -0.166667,-0.5 0.166667,-0.5 0.5,-0.5C 0.5,112.5 0.5,225.5 0.5,338.5C 126.5,338.5 252.5,338.5 378.5,338.5C 378.5,225.5 378.5,112.5 378.5,-0.5C 379.5,-0.5 380.5,-0.5 381.5,-0.5C 381.5,112.5 381.5,225.5 381.5,338.5C 507.5,338.5 633.5,338.5 759.5,338.5C 759.5,225.5 759.5,112.5 759.5,-0.5C 760.5,-0.5 761.5,-0.5 762.5,-0.5C 762.5,112.5 762.5,225.5 762.5,338.5C 888.833,338.5 1015.17,338.5 1141.5,338.5C 1141.5,225.5 1141.5,112.5 1141.5,-0.5C 1142.5,-0.5 1143.5,-0.5 1144.5,-0.5C 1144.5,112.5 1144.5,225.5 1144.5,338.5C 1270.5,338.5 1396.5,338.5 1522.5,338.5C 1522.5,225.5 1522.5,112.5 1522.5,-0.5C 1523.5,-0.5 1524.5,-0.5 1525.5,-0.5C 1525.5,112.5 1525.5,225.5 1525.5,338.5C 1651.5,338.5 1777.5,338.5 1903.5,338.5C 1903.5,225.5 1903.5,112.5 1903.5,-0.5C 1904.5,-0.5 1905.5,-0.5 1906.5,-0.5C 1906.5,112.5 1906.5,225.5 1906.5,338.5C 2032.5,338.5 2158.5,338.5 2284.5,338.5C 2284.5,225.5 2284.5,112.5 2284.5,-0.5C 2285.5,-0.5 2286.5,-0.5 2287.5,-0.5C 2287.5,112.5 2287.5,225.5 2287.5,338.5C 2413.83,338.5 2540.17,338.5 2666.5,338.5C 2666.5,225.5 2666.5,112.5 2666.5,-0.5C 2667.5,-0.5 2668.5,-0.5 2669.5,-0.5C 2669.5,112.5 2669.5,225.5 2669.5,338.5C 2795.5,338.5 2921.5,338.5 3047.5,338.5C 3047.5,225.5 3047.5,112.5 3047.5,-0.5C 3048.5,-0.5 3049.5,-0.5 3050.5,-0.5C 3050.5,112.5 3050.5,225.5 3050.5,338.5C 3176.5,338.5 3302.5,338.5 3428.5,338.5C 3428.5,225.5 3428.5,112.5 3428.5,-0.5C 3429.5,-0.5 3430.5,-0.5 3431.5,-0.5C 3431.5,112.5 3431.5,225.5 3431.5,338.5C 3557.83,338.5 3684.17,338.5 3810.5,338.5C 3810.5,225.5 3810.5,112.5 3810.5,-0.5C 3811.5,-0.5 3812.5,-0.5 3813.5,-0.5C 3813.5,112.5 3813.5,225.5 3813.5,338.5C 3939.5,338.5 4065.5,338.5 4191.5,338.5C 4191.5,225.5 4191.5,112.5 4191.5,-0.5C 4192.5,-0.5 4193.5,-0.5 4194.5,-0.5C 4194.5,112.5 4194.5,225.5 4194.5,338.5C 4320.5,338.5 4446.5,338.5 4572.5,338.5C 4572.5,225.5 4572.5,112.5 4572.5,-0.5C 4573.5,-0.5 4574.5,-0.5 4575.5,-0.5C 4575.5,112.5 4575.5,225.5 4575.5,338.5C 4701.83,338.5 4828.17,338.5 4954.5,338.5C 4954.5,225.5 4954.5,112.5 4954.5,-0.5C 4955.5,-0.5 4956.5,-0.5 4957.5,-0.5C 4957.5,112.5 4957.5,225.5 4957.5,338.5C 5083.5,338.5 5209.5,338.5 5335.5,338.5C 5335.5,225.5 5335.5,112.5 5335.5,-0.5C 5336.5,-0.5 5337.5,-0.5 5338.5,-0.5C 5338.5,112.5 5338.5,225.5 5338.5,338.5C 5464.5,338.5 5590.5,338.5 5716.5,338.5C 5716.5,225.5 5716.5,112.5 5716.5,-0.5C 5717.5,-0.5 5718.5,-0.5 5719.5,-0.5C 5719.5,112.5 5719.5,225.5 5719.5,338.5C 5845.5,338.5 5971.5,338.5 6097.5,338.5C 6097.5,225.5 6097.5,112.5 6097.5,-0.5C 6098.5,-0.5 6099.5,-0.5 6100.5,-0.5C 6100.5,112.5 6100.5,225.5 6100.5,338.5C 6226.83,338.5 6353.17,338.5 6479.5,338.5C 6479.5,225.5 6479.5,112.5 6479.5,-0.5C 6480.5,-0.5 6481.5,-0.5 6482.5,-0.5C 6482.5,112.5 6482.5,225.5 6482.5,338.5C 6608.5,338.5 6734.5,338.5 6860.5,338.5C 6860.5,225.5 6860.5,112.5 6860.5,-0.5C 6861.5,-0.5 6862.5,-0.5 6863.5,-0.5C 6863.5,112.5 6863.5,225.5 6863.5,338.5C 6989.5,338.5 7115.5,338.5 7241.5,338.5C 7241.5,225.5 7241.5,112.5 7241.5,-0.5C 7242.5,-0.5 7243.5,-0.5 7244.5,-0.5C 7244.5,112.5 7244.5,225.5 7244.5,338.5C 7370.83,338.5 7497.17,338.5 7623.5,338.5C 7623.5,225.5 7623.5,112.5 7623.5,-0.5C 7624.5,-0.5 7625.5,-0.5 7626.5,-0.5C 7626.5,112.5 7626.5,225.5 7626.5,338.5C 7750.83,338.5 7875.17,338.5 7999.5,338.5C 7999.5,339.5 7999.5,340.5 7999.5,341.5C 7875.17,341.5 7750.83,341.5 7626.5,341.5C 7626.5,467.5 7626.5,593.5 7626.5,719.5C 7750.83,719.5 7875.17,719.5 7999.5,719.5C 7999.5,720.5 7999.5,721.5 7999.5,722.5C 7875.17,722.5 7750.83,722.5 7626.5,722.5C 7626.5,848.833 7626.5,975.167 7626.5,1101.5C 7750.83,1101.5 7875.17,1101.5 7999.5,1101.5C 7999.5,1102.5 7999.5,1103.5 7999.5,1104.5C 7875.17,1104.5 7750.83,1104.5 7626.5,1104.5C 7626.5,1230.5 7626.5,1356.5 7626.5,1482.5C 7750.83,1482.5 7875.17,1482.5 7999.5,1482.5C 7999.5,1483.5 7999.5,1484.5 7999.5,1485.5C 7875.17,1485.5 7750.83,1485.5 7626.5,1485.5C 7626.5,1611.5 7626.5,1737.5 7626.5,1863.5C 7750.83,1863.5 7875.17,1863.5 7999.5,1863.5C 7999.5,1864.5 7999.5,1865.5 7999.5,1866.5C 7875.17,1866.5 7750.83,1866.5 7626.5,1866.5C 7626.5,1992.5 7626.5,2118.5 7626.5,2244.5C 7750.83,2244.5 7875.17,2244.5 7999.5,2244.5C 7999.5,2245.5 7999.5,2246.5 7999.5,2247.5C 7875.17,2247.5 7750.83,2247.5 7626.5,2247.5C 7626.5,2373.83 7626.5,2500.17 7626.5,2626.5C 7750.83,2626.5 7875.17,2626.5 7999.5,2626.5C 7999.5,2627.5 7999.5,2628.5 7999.5,2629.5C 7875.17,2629.5 7750.83,2629.5 7626.5,2629.5C 7626.5,2755.5 7626.5,2881.5 7626.5,3007.5C 7750.83,3007.5 7875.17,3007.5 7999.5,3007.5C 7999.5,3008.5 7999.5,3009.5 7999.5,3010.5C 7875.17,3010.5 7750.83,3010.5 7626.5,3010.5C 7626.5,3136.5 7626.5,3262.5 7626.5,3388.5C 7750.83,3388.5 7875.17,3388.5 7999.5,3388.5C 7999.5,3389.5 7999.5,3390.5 7999.5,3391.5C 7875.17,3391.5 7750.83,3391.5 7626.5,3391.5C 7626.5,3517.83 7626.5,3644.17 7626.5,3770.5C 7750.83,3770.5 7875.17,3770.5 7999.5,3770.5C 7999.5,3771.5 7999.5,3772.5 7999.5,3773.5C 7875.17,3773.5 7750.83,3773.5 7626.5,3773.5C 7626.5,3899.5 7626.5,4025.5 7626.5,4151.5C 7750.83,4151.5 7875.17,4151.5 7999.5,4151.5C 7999.5,4152.5 7999.5,4153.5 7999.5,4154.5C 7875.17,4154.5 7750.83,4154.5 7626.5,4154.5C 7626.5,4269.5 7626.5,4384.5 7626.5,4499.5C 7625.5,4499.5 7624.5,4499.5 7623.5,4499.5C 7623.5,4384.5 7623.5,4269.5 7623.5,4154.5C 7497.17,4154.5 7370.83,4154.5 7244.5,4154.5C 7244.5,4269.5 7244.5,4384.5 7244.5,4499.5C 7243.5,4499.5 7242.5,4499.5 7241.5,4499.5C 7241.5,4384.5 7241.5,4269.5 7241.5,4154.5C 7115.5,4154.5 6989.5,4154.5 6863.5,4154.5C 6863.5,4269.5 6863.5,4384.5 6863.5,4499.5C 6862.5,4499.5 6861.5,4499.5 6860.5,4499.5C 6860.5,4384.5 6860.5,4269.5 6860.5,4154.5C 6734.5,4154.5 6608.5,4154.5 6482.5,4154.5C 6482.5,4269.5 6482.5,4384.5 6482.5,4499.5C 6481.5,4499.5 6480.5,4499.5 6479.5,4499.5C 6479.5,4384.5 6479.5,4269.5 6479.5,4154.5C 6353.17,4154.5 6226.83,4154.5 6100.5,4154.5C 6100.5,4269.5 6100.5,4384.5 6100.5,4499.5C 6099.5,4499.5 6098.5,4499.5 6097.5,4499.5C 6097.5,4384.5 6097.5,4269.5 6097.5,4154.5C 5971.5,4154.5 5845.5,4154.5 5719.5,4154.5C 5719.5,4269.5 5719.5,4384.5 5719.5,4499.5C 5718.5,4499.5 5717.5,4499.5 5716.5,4499.5C 5716.5,4384.5 5716.5,4269.5 5716.5,4154.5C 5590.5,4154.5 5464.5,4154.5 5338.5,4154.5C 5338.5,4269.5 5338.5,4384.5 5338.5,4499.5C 5337.5,4499.5 5336.5,4499.5 5335.5,4499.5C 5335.5,4384.5 5335.5,4269.5 5335.5,4154.5C 5209.5,4154.5 5083.5,4154.5 4957.5,4154.5C 4957.5,4269.5 4957.5,4384.5 4957.5,4499.5C 4956.5,4499.5 4955.5,4499.5 4954.5,4499.5C 4954.5,4384.5 4954.5,4269.5 4954.5,4154.5C 4828.17,4154.5 4701.83,4154.5 4575.5,4154.5C 4575.5,4269.5 4575.5,4384.5 4575.5,4499.5C 4574.5,4499.5 4573.5,4499.5 4572.5,4499.5C 4572.5,4384.5 4572.5,4269.5 4572.5,4154.5C 4446.5,4154.5 4320.5,4154.5 4194.5,4154.5C 4194.5,4269.5 4194.5,4384.5 4194.5,4499.5C 4193.5,4499.5 4192.5,4499.5 4191.5,4499.5C 4191.5,4384.5 4191.5,4269.5 4191.5,4154.5C 4065.5,4154.5 3939.5,4154.5 3813.5,4154.5C 3813.5,4269.5 3813.5,4384.5 3813.5,4499.5C 3812.5,4499.5 3811.5,4499.5 3810.5,4499.5C 3810.5,4384.5 3810.5,4269.5 3810.5,4154.5C 3684.17,4154.5 3557.83,4154.5 3431.5,4154.5C 3431.5,4269.5 3431.5,4384.5 3431.5,4499.5C 3430.5,4499.5 3429.5,4499.5 3428.5,4499.5C 3428.5,4384.5 3428.5,4269.5 3428.5,4154.5C 3302.5,4154.5 3176.5,4154.5 3050.5,4154.5C 3050.5,4269.5 3050.5,4384.5 3050.5,4499.5C 3049.5,4499.5 3048.5,4499.5 3047.5,4499.5C 3047.5,4384.5 3047.5,4269.5 3047.5,4154.5C 2921.5,4154.5 2795.5,4154.5 2669.5,4154.5C 2669.5,4269.5 2669.5,4384.5 2669.5,4499.5C 2668.5,4499.5 2667.5,4499.5 2666.5,4499.5C 2666.5,4384.5 2666.5,4269.5 2666.5,4154.5C 2540.17,4154.5 2413.83,4154.5 2287.5,4154.5C 2287.5,4269.5 2287.5,4384.5 2287.5,4499.5C 2286.5,4499.5 2285.5,4499.5 2284.5,4499.5C 2284.5,4384.5 2284.5,4269.5 2284.5,4154.5C 2158.5,4154.5 2032.5,4154.5 1906.5,4154.5C 1906.5,4269.5 1906.5,4384.5 1906.5,4499.5C 1905.5,4499.5 1904.5,4499.5 1903.5,4499.5C 1903.5,4384.5 1903.5,4269.5 1903.5,4154.5C 1777.5,4154.5 1651.5,4154.5 1525.5,4154.5C 1525.5,4269.5 1525.5,4384.5 1525.5,4499.5C 1524.5,4499.5 1523.5,4499.5 1522.5,4499.5C 1522.5,4384.5 1522.5,4269.5 1522.5,4154.5C 1396.5,4154.5 1270.5,4154.5 1144.5,4154.5C 1144.5,4269.5 1144.5,4384.5 1144.5,4499.5C 1143.5,4499.5 1142.5,4499.5 1141.5,4499.5C 1141.5,4384.5 1141.5,4269.5 1141.5,4154.5C 1015.17,4154.5 888.833,4154.5 762.5,4154.5C 762.5,4269.5 762.5,4384.5 762.5,4499.5C 761.5,4499.5 760.5,4499.5 759.5,4499.5C 759.5,4384.5 759.5,4269.5 759.5,4154.5C 633.5,4154.5 507.5,4154.5 381.5,4154.5C 381.5,4269.5 381.5,4384.5 381.5,4499.5C 380.5,4499.5 379.5,4499.5 378.5,4499.5C 378.5,4384.5 378.5,4269.5 378.5,4154.5C 252.5,4154.5 126.5,4154.5 0.5,4154.5C 0.5,4269.5 0.5,4384.5 0.5,4499.5C 0.166667,4499.5 -0.166667,4499.5 -0.5,4499.5C -0.5,2999.5 -0.5,1499.5 -0.5,-0.5 Z M 0.5,341.5 C 126.5,341.5 252.5,341.5 378.5,341.5C 378.5,467.5 378.5,593.5 378.5,719.5C 252.5,719.5 126.5,719.5 0.5,719.5C 0.5,593.5 0.5,467.5 0.5,341.5 Z M 381.5,341.5 C 507.5,341.5 633.5,341.5 759.5,341.5C 759.5,467.5 759.5,593.5 759.5,719.5C 633.5,719.5 507.5,719.5 381.5,719.5C 381.5,593.5 381.5,467.5 381.5,341.5 Z M 762.5,341.5 C 888.833,341.5 1015.17,341.5 1141.5,341.5C 1141.5,467.5 1141.5,593.5 1141.5,719.5C 1015.17,719.5 888.833,719.5 762.5,719.5C 762.5,593.5 762.5,467.5 762.5,341.5 Z M 1144.5,341.5 C 1270.5,341.5 1396.5,341.5 1522.5,341.5C 1522.5,467.5 1522.5,593.5 1522.5,719.5C 1396.5,719.5 1270.5,719.5 1144.5,719.5C 1144.5,593.5 1144.5,467.5 1144.5,341.5 Z M 1525.5,341.5 C 1651.5,341.5 1777.5,341.5 1903.5,341.5C 1903.5,467.5 1903.5,593.5 1903.5,719.5C 1777.5,719.5 1651.5,719.5 1525.5,719.5C 1525.5,593.5 1525.5,467.5 1525.5,341.5 Z M 1906.5,341.5 C 2032.5,341.5 2158.5,341.5 2284.5,341.5C 2284.5,467.5 2284.5,593.5 2284.5,719.5C 2158.5,719.5 2032.5,719.5 1906.5,719.5C 1906.5,593.5 1906.5,467.5 1906.5,341.5 Z M 2287.5,341.5 C 2413.83,341.5 2540.17,341.5 2666.5,341.5C 2666.5,467.5 2666.5,593.5 2666.5,719.5C 2540.17,719.5 2413.83,719.5 2287.5,719.5C 2287.5,593.5 2287.5,467.5 2287.5,341.5 Z M 2669.5,341.5 C 2795.5,341.5 2921.5,341.5 3047.5,341.5C 3047.5,467.5 3047.5,593.5 3047.5,719.5C 2921.5,719.5 2795.5,719.5 2669.5,719.5C 2669.5,593.5 2669.5,467.5 2669.5,341.5 Z M 3050.5,341.5 C 3176.5,341.5 3302.5,341.5 3428.5,341.5C 3428.5,467.5 3428.5,593.5 3428.5,719.5C 3302.5,719.5 3176.5,719.5 3050.5,719.5C 3050.5,593.5 3050.5,467.5 3050.5,341.5 Z M 3431.5,341.5 C 3557.83,341.5 3684.17,341.5 3810.5,341.5C 3810.5,467.5 3810.5,593.5 3810.5,719.5C 3684.17,719.5 3557.83,719.5 3431.5,719.5C 3431.5,593.5 3431.5,467.5 3431.5,341.5 Z M 3813.5,341.5 C 3939.5,341.5 4065.5,341.5 4191.5,341.5C 4191.5,467.5 4191.5,593.5 4191.5,719.5C 4065.5,719.5 3939.5,719.5 3813.5,719.5C 3813.5,593.5 3813.5,467.5 3813.5,341.5 Z M 4194.5,341.5 C 4320.5,341.5 4446.5,341.5 4572.5,341.5C 4572.5,467.5 4572.5,593.5 4572.5,719.5C 4446.5,719.5 4320.5,719.5 4194.5,719.5C 4194.5,593.5 4194.5,467.5 4194.5,341.5 Z M 4575.5,341.5 C 4701.83,341.5 4828.17,341.5 4954.5,341.5C 4954.5,467.5 4954.5,593.5 4954.5,719.5C 4828.17,719.5 4701.83,719.5 4575.5,719.5C 4575.5,593.5 4575.5,467.5 4575.5,341.5 Z M 4957.5,341.5 C 5083.5,341.5 5209.5,341.5 5335.5,341.5C 5335.5,467.5 5335.5,593.5 5335.5,719.5C 5209.5,719.5 5083.5,719.5 4957.5,719.5C 4957.5,593.5 4957.5,467.5 4957.5,341.5 Z M 5338.5,341.5 C 5464.5,341.5 5590.5,341.5 5716.5,341.5C 5716.5,467.5 5716.5,593.5 5716.5,719.5C 5590.5,719.5 5464.5,719.5 5338.5,719.5C 5338.5,593.5 5338.5,467.5 5338.5,341.5 Z M 5719.5,341.5 C 5845.5,341.5 5971.5,341.5 6097.5,341.5C 6097.5,467.5 6097.5,593.5 6097.5,719.5C 5971.5,719.5 5845.5,719.5 5719.5,719.5C 5719.5,593.5 5719.5,467.5 5719.5,341.5 Z M 6100.5,341.5 C 6226.83,341.5 6353.17,341.5 6479.5,341.5C 6479.5,467.5 6479.5,593.5 6479.5,719.5C 6353.17,719.5 6226.83,719.5 6100.5,719.5C 6100.5,593.5 6100.5,467.5 6100.5,341.5 Z M 6482.5,341.5 C 6608.5,341.5 6734.5,341.5 6860.5,341.5C 6860.5,467.5 6860.5,593.5 6860.5,719.5C 6734.5,719.5 6608.5,719.5 6482.5,719.5C 6482.5,593.5 6482.5,467.5 6482.5,341.5 Z M 6863.5,341.5 C 6989.5,341.5 7115.5,341.5 7241.5,341.5C 7241.5,467.5 7241.5,593.5 7241.5,719.5C 7115.5,719.5 6989.5,719.5 6863.5,719.5C 6863.5,593.5 6863.5,467.5 6863.5,341.5 Z M 7244.5,341.5 C 7370.83,341.5 7497.17,341.5 7623.5,341.5C 7623.5,467.5 7623.5,593.5 7623.5,719.5C 7497.17,719.5 7370.83,719.5 7244.5,719.5C 7244.5,593.5 7244.5,467.5 7244.5,341.5 Z M 0.5,722.5 C 126.5,722.5 252.5,722.5 378.5,722.5C 378.5,848.833 378.5,975.167 378.5,1101.5C 252.5,1101.5 126.5,1101.5 0.5,1101.5C 0.5,975.167 0.5,848.833 0.5,722.5 Z M 381.5,722.5 C 507.5,722.5 633.5,722.5 759.5,722.5C 759.5,848.833 759.5,975.167 759.5,1101.5C 633.5,1101.5 507.5,1101.5 381.5,1101.5C 381.5,975.167 381.5,848.833 381.5,722.5 Z M 762.5,722.5 C 888.833,722.5 1015.17,722.5 1141.5,722.5C 1141.5,848.833 1141.5,975.167 1141.5,1101.5C 1015.17,1101.5 888.833,1101.5 762.5,1101.5C 762.5,975.167 762.5,848.833 762.5,722.5 Z M 1144.5,722.5 C 1270.5,722.5 1396.5,722.5 1522.5,722.5C 1522.5,848.833 1522.5,975.167 1522.5,1101.5C 1396.5,1101.5 1270.5,1101.5 1144.5,1101.5C 1144.5,975.167 1144.5,848.833 1144.5,722.5 Z M 1525.5,722.5 C 1651.5,722.5 1777.5,722.5 1903.5,722.5C 1903.5,848.833 1903.5,975.167 1903.5,1101.5C 1777.5,1101.5 1651.5,1101.5 1525.5,1101.5C 1525.5,975.167 1525.5,848.833 1525.5,722.5 Z M 1906.5,722.5 C 2032.5,722.5 2158.5,722.5 2284.5,722.5C 2284.5,848.833 2284.5,975.167 2284.5,1101.5C 2158.5,1101.5 2032.5,1101.5 1906.5,1101.5C 1906.5,975.167 1906.5,848.833 1906.5,722.5 Z M 2287.5,722.5 C 2413.83,722.5 2540.17,722.5 2666.5,722.5C 2666.5,848.833 2666.5,975.167 2666.5,1101.5C 2540.17,1101.5 2413.83,1101.5 2287.5,1101.5C 2287.5,975.167 2287.5,848.833 2287.5,722.5 Z M 2669.5,722.5 C 2795.5,722.5 2921.5,722.5 3047.5,722.5C 3047.5,848.833 3047.5,975.167 3047.5,1101.5C 2921.5,1101.5 2795.5,1101.5 2669.5,1101.5C 2669.5,975.167 2669.5,848.833 2669.5,722.5 Z M 3050.5,722.5 C 3176.5,722.5 3302.5,722.5 3428.5,722.5C 3428.5,848.833 3428.5,975.167 3428.5,1101.5C 3302.5,1101.5 3176.5,1101.5 3050.5,1101.5C 3050.5,975.167 3050.5,848.833 3050.5,722.5 Z M 3431.5,722.5 C 3557.83,722.5 3684.17,722.5 3810.5,722.5C 3810.5,848.833 3810.5,975.167 3810.5,1101.5C 3684.17,1101.5 3557.83,1101.5 3431.5,1101.5C 3431.5,975.167 3431.5,848.833 3431.5,722.5 Z M 3813.5,722.5 C 3939.5,722.5 4065.5,722.5 4191.5,722.5C 4191.5,848.833 4191.5,975.167 4191.5,1101.5C 4065.5,1101.5 3939.5,1101.5 3813.5,1101.5C 3813.5,975.167 3813.5,848.833 3813.5,722.5 Z M 4194.5,722.5 C 4320.5,722.5 4446.5,722.5 4572.5,722.5C 4572.5,848.833 4572.5,975.167 4572.5,1101.5C 4446.5,1101.5 4320.5,1101.5 4194.5,1101.5C 4194.5,975.167 4194.5,848.833 4194.5,722.5 Z M 4575.5,722.5 C 4701.83,722.5 4828.17,722.5 4954.5,722.5C 4954.5,848.833 4954.5,975.167 4954.5,1101.5C 4828.17,1101.5 4701.83,1101.5 4575.5,1101.5C 4575.5,975.167 4575.5,848.833 4575.5,722.5 Z M 4957.5,722.5 C 5083.5,722.5 5209.5,722.5 5335.5,722.5C 5335.5,848.833 5335.5,975.167 5335.5,1101.5C 5209.5,1101.5 5083.5,1101.5 4957.5,1101.5C 4957.5,975.167 4957.5,848.833 4957.5,722.5 Z M 5338.5,722.5 C 5464.5,722.5 5590.5,722.5 5716.5,722.5C 5716.5,848.833 5716.5,975.167 5716.5,1101.5C 5590.5,1101.5 5464.5,1101.5 5338.5,1101.5C 5338.5,975.167 5338.5,848.833 5338.5,722.5 Z M 5719.5,722.5 C 5845.5,722.5 5971.5,722.5 6097.5,722.5C 6097.5,848.833 6097.5,975.167 6097.5,1101.5C 5971.5,1101.5 5845.5,1101.5 5719.5,1101.5C 5719.5,975.167 5719.5,848.833 5719.5,722.5 Z M 6100.5,722.5 C 6226.83,722.5 6353.17,722.5 6479.5,722.5C 6479.5,848.833 6479.5,975.167 6479.5,1101.5C 6353.17,1101.5 6226.83,1101.5 6100.5,1101.5C 6100.5,975.167 6100.5,848.833 6100.5,722.5 Z M 6482.5,722.5 C 6608.5,722.5 6734.5,722.5 6860.5,722.5C 6860.5,848.833 6860.5,975.167 6860.5,1101.5C 6734.5,1101.5 6608.5,1101.5 6482.5,1101.5C 6482.5,975.167 6482.5,848.833 6482.5,722.5 Z M 6863.5,722.5 C 6989.5,722.5 7115.5,722.5 7241.5,722.5C 7241.5,848.833 7241.5,975.167 7241.5,1101.5C 7115.5,1101.5 6989.5,1101.5 6863.5,1101.5C 6863.5,975.167 6863.5,848.833 6863.5,722.5 Z M 7244.5,722.5 C 7370.83,722.5 7497.17,722.5 7623.5,722.5C 7623.5,848.833 7623.5,975.167 7623.5,1101.5C 7497.17,1101.5 7370.83,1101.5 7244.5,1101.5C 7244.5,975.167 7244.5,848.833 7244.5,722.5 Z M 0.5,1104.5 C 126.5,1104.5 252.5,1104.5 378.5,1104.5C 378.5,1230.5 378.5,1356.5 378.5,1482.5C 252.5,1482.5 126.5,1482.5 0.5,1482.5C 0.5,1356.5 0.5,1230.5 0.5,1104.5 Z M 381.5,1104.5 C 507.5,1104.5 633.5,1104.5 759.5,1104.5C 759.5,1230.5 759.5,1356.5 759.5,1482.5C 633.5,1482.5 507.5,1482.5 381.5,1482.5C 381.5,1356.5 381.5,1230.5 381.5,1104.5 Z M 762.5,1104.5 C 888.833,1104.5 1015.17,1104.5 1141.5,1104.5C 1141.5,1230.5 1141.5,1356.5 1141.5,1482.5C 1015.17,1482.5 888.833,1482.5 762.5,1482.5C 762.5,1356.5 762.5,1230.5 762.5,1104.5 Z M 1144.5,1104.5 C 1270.5,1104.5 1396.5,1104.5 1522.5,1104.5C 1522.5,1230.5 1522.5,1356.5 1522.5,1482.5C 1396.5,1482.5 1270.5,1482.5 1144.5,1482.5C 1144.5,1356.5 1144.5,1230.5 1144.5,1104.5 Z M 1525.5,1104.5 C 1651.5,1104.5 1777.5,1104.5 1903.5,1104.5C 1903.5,1230.5 1903.5,1356.5 1903.5,1482.5C 1777.5,1482.5 1651.5,1482.5 1525.5,1482.5C 1525.5,1356.5 1525.5,1230.5 1525.5,1104.5 Z M 1906.5,1104.5 C 2032.5,1104.5 2158.5,1104.5 2284.5,1104.5C 2284.5,1230.5 2284.5,1356.5 2284.5,1482.5C 2158.5,1482.5 2032.5,1482.5 1906.5,1482.5C 1906.5,1356.5 1906.5,1230.5 1906.5,1104.5 Z M 2287.5,1104.5 C 2413.83,1104.5 2540.17,1104.5 2666.5,1104.5C 2666.5,1230.5 2666.5,1356.5 2666.5,1482.5C 2540.17,1482.5 2413.83,1482.5 2287.5,1482.5C 2287.5,1356.5 2287.5,1230.5 2287.5,1104.5 Z M 2669.5,1104.5 C 2795.5,1104.5 2921.5,1104.5 3047.5,1104.5C 3047.5,1230.5 3047.5,1356.5 3047.5,1482.5C 2921.5,1482.5 2795.5,1482.5 2669.5,1482.5C 2669.5,1356.5 2669.5,1230.5 2669.5,1104.5 Z M 3050.5,1104.5 C 3176.5,1104.5 3302.5,1104.5 3428.5,1104.5C 3428.5,1230.5 3428.5,1356.5 3428.5,1482.5C 3302.5,1482.5 3176.5,1482.5 3050.5,1482.5C 3050.5,1356.5 3050.5,1230.5 3050.5,1104.5 Z M 3431.5,1104.5 C 3557.83,1104.5 3684.17,1104.5 3810.5,1104.5C 3810.5,1230.5 3810.5,1356.5 3810.5,1482.5C 3684.17,1482.5 3557.83,1482.5 3431.5,1482.5C 3431.5,1356.5 3431.5,1230.5 3431.5,1104.5 Z M 3813.5,1104.5 C 3939.5,1104.5 4065.5,1104.5 4191.5,1104.5C 4191.5,1230.5 4191.5,1356.5 4191.5,1482.5C 4065.5,1482.5 3939.5,1482.5 3813.5,1482.5C 3813.5,1356.5 3813.5,1230.5 3813.5,1104.5 Z M 4194.5,1104.5 C 4320.5,1104.5 4446.5,1104.5 4572.5,1104.5C 4572.5,1230.5 4572.5,1356.5 4572.5,1482.5C 4446.5,1482.5 4320.5,1482.5 4194.5,1482.5C 4194.5,1356.5 4194.5,1230.5 4194.5,1104.5 Z M 4575.5,1104.5 C 4701.83,1104.5 4828.17,1104.5 4954.5,1104.5C 4954.5,1230.5 4954.5,1356.5 4954.5,1482.5C 4828.17,1482.5 4701.83,1482.5 4575.5,1482.5C 4575.5,1356.5 4575.5,1230.5 4575.5,1104.5 Z M 4957.5,1104.5 C 5083.5,1104.5 5209.5,1104.5 5335.5,1104.5C 5335.5,1230.5 5335.5,1356.5 5335.5,1482.5C 5209.5,1482.5 5083.5,1482.5 4957.5,1482.5C 4957.5,1356.5 4957.5,1230.5 4957.5,1104.5 Z M 5338.5,1104.5 C 5464.5,1104.5 5590.5,1104.5 5716.5,1104.5C 5716.5,1230.5 5716.5,1356.5 5716.5,1482.5C 5590.5,1482.5 5464.5,1482.5 5338.5,1482.5C 5338.5,1356.5 5338.5,1230.5 5338.5,1104.5 Z M 5719.5,1104.5 C 5845.5,1104.5 5971.5,1104.5 6097.5,1104.5C 6097.5,1230.5 6097.5,1356.5 6097.5,1482.5C 5971.5,1482.5 5845.5,1482.5 5719.5,1482.5C 5719.5,1356.5 5719.5,1230.5 5719.5,1104.5 Z M 6100.5,1104.5 C 6226.83,1104.5 6353.17,1104.5 6479.5,1104.5C 6479.5,1230.5 6479.5,1356.5 6479.5,1482.5C 6353.17,1482.5 6226.83,1482.5 6100.5,1482.5C 6100.5,1356.5 6100.5,1230.5 6100.5,1104.5 Z M 6482.5,1104.5 C 6608.5,1104.5 6734.5,1104.5 6860.5,1104.5C 6860.5,1230.5 6860.5,1356.5 6860.5,1482.5C 6734.5,1482.5 6608.5,1482.5 6482.5,1482.5C 6482.5,1356.5 6482.5,1230.5 6482.5,1104.5 Z M 6863.5,1104.5 C 6989.5,1104.5 7115.5,1104.5 7241.5,1104.5C 7241.5,1230.5 7241.5,1356.5 7241.5,1482.5C 7115.5,1482.5 6989.5,1482.5 6863.5,1482.5C 6863.5,1356.5 6863.5,1230.5 6863.5,1104.5 Z M 7244.5,1104.5 C 7370.83,1104.5 7497.17,1104.5 7623.5,1104.5C 7623.5,1230.5 7623.5,1356.5 7623.5,1482.5C 7497.17,1482.5 7370.83,1482.5 7244.5,1482.5C 7244.5,1356.5 7244.5,1230.5 7244.5,1104.5 Z M 0.5,1485.5 C 126.5,1485.5 252.5,1485.5 378.5,1485.5C 378.5,1611.5 378.5,1737.5 378.5,1863.5C 252.5,1863.5 126.5,1863.5 0.5,1863.5C 0.5,1737.5 0.5,1611.5 0.5,1485.5 Z M 381.5,1485.5 C 507.5,1485.5 633.5,1485.5 759.5,1485.5C 759.5,1611.5 759.5,1737.5 759.5,1863.5C 633.5,1863.5 507.5,1863.5 381.5,1863.5C 381.5,1737.5 381.5,1611.5 381.5,1485.5 Z M 762.5,1485.5 C 888.833,1485.5 1015.17,1485.5 1141.5,1485.5C 1141.5,1611.5 1141.5,1737.5 1141.5,1863.5C 1015.17,1863.5 888.833,1863.5 762.5,1863.5C 762.5,1737.5 762.5,1611.5 762.5,1485.5 Z M 1144.5,1485.5 C 1270.5,1485.5 1396.5,1485.5 1522.5,1485.5C 1522.5,1611.5 1522.5,1737.5 1522.5,1863.5C 1396.5,1863.5 1270.5,1863.5 1144.5,1863.5C 1144.5,1737.5 1144.5,1611.5 1144.5,1485.5 Z M 1525.5,1485.5 C 1651.5,1485.5 1777.5,1485.5 1903.5,1485.5C 1903.5,1611.5 1903.5,1737.5 1903.5,1863.5C 1777.5,1863.5 1651.5,1863.5 1525.5,1863.5C 1525.5,1737.5 1525.5,1611.5 1525.5,1485.5 Z M 1906.5,1485.5 C 2032.5,1485.5 2158.5,1485.5 2284.5,1485.5C 2284.5,1611.5 2284.5,1737.5 2284.5,1863.5C 2158.5,1863.5 2032.5,1863.5 1906.5,1863.5C 1906.5,1737.5 1906.5,1611.5 1906.5,1485.5 Z M 2287.5,1485.5 C 2413.83,1485.5 2540.17,1485.5 2666.5,1485.5C 2666.5,1611.5 2666.5,1737.5 2666.5,1863.5C 2540.17,1863.5 2413.83,1863.5 2287.5,1863.5C 2287.5,1737.5 2287.5,1611.5 2287.5,1485.5 Z M 2669.5,1485.5 C 2795.5,1485.5 2921.5,1485.5 3047.5,1485.5C 3047.5,1611.5 3047.5,1737.5 3047.5,1863.5C 2921.5,1863.5 2795.5,1863.5 2669.5,1863.5C 2669.5,1737.5 2669.5,1611.5 2669.5,1485.5 Z M 3050.5,1485.5 C 3176.5,1485.5 3302.5,1485.5 3428.5,1485.5C 3428.5,1611.5 3428.5,1737.5 3428.5,1863.5C 3302.5,1863.5 3176.5,1863.5 3050.5,1863.5C 3050.5,1737.5 3050.5,1611.5 3050.5,1485.5 Z M 3431.5,1485.5 C 3557.83,1485.5 3684.17,1485.5 3810.5,1485.5C 3810.5,1611.5 3810.5,1737.5 3810.5,1863.5C 3684.17,1863.5 3557.83,1863.5 3431.5,1863.5C 3431.5,1737.5 3431.5,1611.5 3431.5,1485.5 Z M 3813.5,1485.5 C 3939.5,1485.5 4065.5,1485.5 4191.5,1485.5C 4191.5,1611.5 4191.5,1737.5 4191.5,1863.5C 4065.5,1863.5 3939.5,1863.5 3813.5,1863.5C 3813.5,1737.5 3813.5,1611.5 3813.5,1485.5 Z M 4194.5,1485.5 C 4320.5,1485.5 4446.5,1485.5 4572.5,1485.5C 4572.5,1611.5 4572.5,1737.5 4572.5,1863.5C 4446.5,1863.5 4320.5,1863.5 4194.5,1863.5C 4194.5,1737.5 4194.5,1611.5 4194.5,1485.5 Z M 4575.5,1485.5 C 4701.83,1485.5 4828.17,1485.5 4954.5,1485.5C 4954.5,1611.5 4954.5,1737.5 4954.5,1863.5C 4828.17,1863.5 4701.83,1863.5 4575.5,1863.5C 4575.5,1737.5 4575.5,1611.5 4575.5,1485.5 Z M 4957.5,1485.5 C 5083.5,1485.5 5209.5,1485.5 5335.5,1485.5C 5335.5,1611.5 5335.5,1737.5 5335.5,1863.5C 5209.5,1863.5 5083.5,1863.5 4957.5,1863.5C 4957.5,1737.5 4957.5,1611.5 4957.5,1485.5 Z M 5338.5,1485.5 C 5464.5,1485.5 5590.5,1485.5 5716.5,1485.5C 5716.5,1611.5 5716.5,1737.5 5716.5,1863.5C 5590.5,1863.5 5464.5,1863.5 5338.5,1863.5C 5338.5,1737.5 5338.5,1611.5 5338.5,1485.5 Z M 5719.5,1485.5 C 5845.5,1485.5 5971.5,1485.5 6097.5,1485.5C 6097.5,1611.5 6097.5,1737.5 6097.5,1863.5C 5971.5,1863.5 5845.5,1863.5 5719.5,1863.5C 5719.5,1737.5 5719.5,1611.5 5719.5,1485.5 Z M 6100.5,1485.5 C 6226.83,1485.5 6353.17,1485.5 6479.5,1485.5C 6479.5,1611.5 6479.5,1737.5 6479.5,1863.5C 6353.17,1863.5 6226.83,1863.5 6100.5,1863.5C 6100.5,1737.5 6100.5,1611.5 6100.5,1485.5 Z M 6482.5,1485.5 C 6608.5,1485.5 6734.5,1485.5 6860.5,1485.5C 6860.5,1611.5 6860.5,1737.5 6860.5,1863.5C 6734.5,1863.5 6608.5,1863.5 6482.5,1863.5C 6482.5,1737.5 6482.5,1611.5 6482.5,1485.5 Z M 6863.5,1485.5 C 6989.5,1485.5 7115.5,1485.5 7241.5,1485.5C 7241.5,1611.5 7241.5,1737.5 7241.5,1863.5C 7115.5,1863.5 6989.5,1863.5 6863.5,1863.5C 6863.5,1737.5 6863.5,1611.5 6863.5,1485.5 Z M 7244.5,1485.5 C 7370.83,1485.5 7497.17,1485.5 7623.5,1485.5C 7623.5,1611.5 7623.5,1737.5 7623.5,1863.5C 7497.17,1863.5 7370.83,1863.5 7244.5,1863.5C 7244.5,1737.5 7244.5,1611.5 7244.5,1485.5 Z M 0.5,1866.5 C 126.5,1866.5 252.5,1866.5 378.5,1866.5C 378.5,1992.5 378.5,2118.5 378.5,2244.5C 252.5,2244.5 126.5,2244.5 0.5,2244.5C 0.5,2118.5 0.5,1992.5 0.5,1866.5 Z M 381.5,1866.5 C 507.5,1866.5 633.5,1866.5 759.5,1866.5C 759.5,1992.5 759.5,2118.5 759.5,2244.5C 633.5,2244.5 507.5,2244.5 381.5,2244.5C 381.5,2118.5 381.5,1992.5 381.5,1866.5 Z M 762.5,1866.5 C 888.833,1866.5 1015.17,1866.5 1141.5,1866.5C 1141.5,1992.5 1141.5,2118.5 1141.5,2244.5C 1015.17,2244.5 888.833,2244.5 762.5,2244.5C 762.5,2118.5 762.5,1992.5 762.5,1866.5 Z M 1144.5,1866.5 C 1270.5,1866.5 1396.5,1866.5 1522.5,1866.5C 1522.5,1992.5 1522.5,2118.5 1522.5,2244.5C 1396.5,2244.5 1270.5,2244.5 1144.5,2244.5C 1144.5,2118.5 1144.5,1992.5 1144.5,1866.5 Z M 1525.5,1866.5 C 1651.5,1866.5 1777.5,1866.5 1903.5,1866.5C 1903.5,1992.5 1903.5,2118.5 1903.5,2244.5C 1777.5,2244.5 1651.5,2244.5 1525.5,2244.5C 1525.5,2118.5 1525.5,1992.5 1525.5,1866.5 Z M 1906.5,1866.5 C 2032.5,1866.5 2158.5,1866.5 2284.5,1866.5C 2284.5,1992.5 2284.5,2118.5 2284.5,2244.5C 2158.5,2244.5 2032.5,2244.5 1906.5,2244.5C 1906.5,2118.5 1906.5,1992.5 1906.5,1866.5 Z M 2287.5,1866.5 C 2413.83,1866.5 2540.17,1866.5 2666.5,1866.5C 2666.5,1992.5 2666.5,2118.5 2666.5,2244.5C 2540.17,2244.5 2413.83,2244.5 2287.5,2244.5C 2287.5,2118.5 2287.5,1992.5 2287.5,1866.5 Z M 2669.5,1866.5 C 2795.5,1866.5 2921.5,1866.5 3047.5,1866.5C 3047.5,1992.5 3047.5,2118.5 3047.5,2244.5C 2921.5,2244.5 2795.5,2244.5 2669.5,2244.5C 2669.5,2118.5 2669.5,1992.5 2669.5,1866.5 Z M 3050.5,1866.5 C 3176.5,1866.5 3302.5,1866.5 3428.5,1866.5C 3428.5,1992.5 3428.5,2118.5 3428.5,2244.5C 3302.5,2244.5 3176.5,2244.5 3050.5,2244.5C 3050.5,2118.5 3050.5,1992.5 3050.5,1866.5 Z M 3431.5,1866.5 C 3557.83,1866.5 3684.17,1866.5 3810.5,1866.5C 3810.5,1992.5 3810.5,2118.5 3810.5,2244.5C 3684.17,2244.5 3557.83,2244.5 3431.5,2244.5C 3431.5,2118.5 3431.5,1992.5 3431.5,1866.5 Z M 3813.5,1866.5 C 3939.5,1866.5 4065.5,1866.5 4191.5,1866.5C 4191.5,1992.5 4191.5,2118.5 4191.5,2244.5C 4065.5,2244.5 3939.5,2244.5 3813.5,2244.5C 3813.5,2118.5 3813.5,1992.5 3813.5,1866.5 Z M 4194.5,1866.5 C 4320.5,1866.5 4446.5,1866.5 4572.5,1866.5C 4572.5,1992.5 4572.5,2118.5 4572.5,2244.5C 4446.5,2244.5 4320.5,2244.5 4194.5,2244.5C 4194.5,2118.5 4194.5,1992.5 4194.5,1866.5 Z M 4575.5,1866.5 C 4701.83,1866.5 4828.17,1866.5 4954.5,1866.5C 4954.5,1992.5 4954.5,2118.5 4954.5,2244.5C 4828.17,2244.5 4701.83,2244.5 4575.5,2244.5C 4575.5,2118.5 4575.5,1992.5 4575.5,1866.5 Z M 4957.5,1866.5 C 5083.5,1866.5 5209.5,1866.5 5335.5,1866.5C 5335.5,1992.5 5335.5,2118.5 5335.5,2244.5C 5209.5,2244.5 5083.5,2244.5 4957.5,2244.5C 4957.5,2118.5 4957.5,1992.5 4957.5,1866.5 Z M 5338.5,1866.5 C 5464.5,1866.5 5590.5,1866.5 5716.5,1866.5C 5716.5,1992.5 5716.5,2118.5 5716.5,2244.5C 5590.5,2244.5 5464.5,2244.5 5338.5,2244.5C 5338.5,2118.5 5338.5,1992.5 5338.5,1866.5 Z M 5719.5,1866.5 C 5845.5,1866.5 5971.5,1866.5 6097.5,1866.5C 6097.5,1992.5 6097.5,2118.5 6097.5,2244.5C 5971.5,2244.5 5845.5,2244.5 5719.5,2244.5C 5719.5,2118.5 5719.5,1992.5 5719.5,1866.5 Z M 6100.5,1866.5 C 6226.83,1866.5 6353.17,1866.5 6479.5,1866.5C 6479.5,1992.5 6479.5,2118.5 6479.5,2244.5C 6353.17,2244.5 6226.83,2244.5 6100.5,2244.5C 6100.5,2118.5 6100.5,1992.5 6100.5,1866.5 Z M 6482.5,1866.5 C 6608.5,1866.5 6734.5,1866.5 6860.5,1866.5C 6860.5,1992.5 6860.5,2118.5 6860.5,2244.5C 6734.5,2244.5 6608.5,2244.5 6482.5,2244.5C 6482.5,2118.5 6482.5,1992.5 6482.5,1866.5 Z M 6863.5,1866.5 C 6989.5,1866.5 7115.5,1866.5 7241.5,1866.5C 7241.5,1992.5 7241.5,2118.5 7241.5,2244.5C 7115.5,2244.5 6989.5,2244.5 6863.5,2244.5C 6863.5,2118.5 6863.5,1992.5 6863.5,1866.5 Z M 7244.5,1866.5 C 7370.83,1866.5 7497.17,1866.5 7623.5,1866.5C 7623.5,1992.5 7623.5,2118.5 7623.5,2244.5C 7497.17,2244.5 7370.83,2244.5 7244.5,2244.5C 7244.5,2118.5 7244.5,1992.5 7244.5,1866.5 Z M 0.5,2247.5 C 126.5,2247.5 252.5,2247.5 378.5,2247.5C 378.5,2373.83 378.5,2500.17 378.5,2626.5C 252.5,2626.5 126.5,2626.5 0.5,2626.5C 0.5,2500.17 0.5,2373.83 0.5,2247.5 Z M 381.5,2247.5 C 507.5,2247.5 633.5,2247.5 759.5,2247.5C 759.5,2373.83 759.5,2500.17 759.5,2626.5C 633.5,2626.5 507.5,2626.5 381.5,2626.5C 381.5,2500.17 381.5,2373.83 381.5,2247.5 Z M 762.5,2247.5 C 888.833,2247.5 1015.17,2247.5 1141.5,2247.5C 1141.5,2373.83 1141.5,2500.17 1141.5,2626.5C 1015.17,2626.5 888.833,2626.5 762.5,2626.5C 762.5,2500.17 762.5,2373.83 762.5,2247.5 Z M 1144.5,2247.5 C 1270.5,2247.5 1396.5,2247.5 1522.5,2247.5C 1522.5,2373.83 1522.5,2500.17 1522.5,2626.5C 1396.5,2626.5 1270.5,2626.5 1144.5,2626.5C 1144.5,2500.17 1144.5,2373.83 1144.5,2247.5 Z M 1525.5,2247.5 C 1651.5,2247.5 1777.5,2247.5 1903.5,2247.5C 1903.5,2373.83 1903.5,2500.17 1903.5,2626.5C 1777.5,2626.5 1651.5,2626.5 1525.5,2626.5C 1525.5,2500.17 1525.5,2373.83 1525.5,2247.5 Z M 1906.5,2247.5 C 2032.5,2247.5 2158.5,2247.5 2284.5,2247.5C 2284.5,2373.83 2284.5,2500.17 2284.5,2626.5C 2158.5,2626.5 2032.5,2626.5 1906.5,2626.5C 1906.5,2500.17 1906.5,2373.83 1906.5,2247.5 Z M 2287.5,2247.5 C 2413.83,2247.5 2540.17,2247.5 2666.5,2247.5C 2666.5,2373.83 2666.5,2500.17 2666.5,2626.5C 2540.17,2626.5 2413.83,2626.5 2287.5,2626.5C 2287.5,2500.17 2287.5,2373.83 2287.5,2247.5 Z M 2669.5,2247.5 C 2795.5,2247.5 2921.5,2247.5 3047.5,2247.5C 3047.5,2373.83 3047.5,2500.17 3047.5,2626.5C 2921.5,2626.5 2795.5,2626.5 2669.5,2626.5C 2669.5,2500.17 2669.5,2373.83 2669.5,2247.5 Z M 3050.5,2247.5 C 3176.5,2247.5 3302.5,2247.5 3428.5,2247.5C 3428.5,2373.83 3428.5,2500.17 3428.5,2626.5C 3302.5,2626.5 3176.5,2626.5 3050.5,2626.5C 3050.5,2500.17 3050.5,2373.83 3050.5,2247.5 Z M 3431.5,2247.5 C 3557.83,2247.5 3684.17,2247.5 3810.5,2247.5C 3810.5,2373.83 3810.5,2500.17 3810.5,2626.5C 3684.17,2626.5 3557.83,2626.5 3431.5,2626.5C 3431.5,2500.17 3431.5,2373.83 3431.5,2247.5 Z M 3813.5,2247.5 C 3939.5,2247.5 4065.5,2247.5 4191.5,2247.5C 4191.5,2373.83 4191.5,2500.17 4191.5,2626.5C 4065.5,2626.5 3939.5,2626.5 3813.5,2626.5C 3813.5,2500.17 3813.5,2373.83 3813.5,2247.5 Z M 4194.5,2247.5 C 4320.5,2247.5 4446.5,2247.5 4572.5,2247.5C 4572.5,2373.83 4572.5,2500.17 4572.5,2626.5C 4446.5,2626.5 4320.5,2626.5 4194.5,2626.5C 4194.5,2500.17 4194.5,2373.83 4194.5,2247.5 Z M 4575.5,2247.5 C 4701.83,2247.5 4828.17,2247.5 4954.5,2247.5C 4954.5,2373.83 4954.5,2500.17 4954.5,2626.5C 4828.17,2626.5 4701.83,2626.5 4575.5,2626.5C 4575.5,2500.17 4575.5,2373.83 4575.5,2247.5 Z M 4957.5,2247.5 C 5083.5,2247.5 5209.5,2247.5 5335.5,2247.5C 5335.5,2373.83 5335.5,2500.17 5335.5,2626.5C 5209.5,2626.5 5083.5,2626.5 4957.5,2626.5C 4957.5,2500.17 4957.5,2373.83 4957.5,2247.5 Z M 5338.5,2247.5 C 5464.5,2247.5 5590.5,2247.5 5716.5,2247.5C 5716.5,2373.83 5716.5,2500.17 5716.5,2626.5C 5590.5,2626.5 5464.5,2626.5 5338.5,2626.5C 5338.5,2500.17 5338.5,2373.83 5338.5,2247.5 Z M 5719.5,2247.5 C 5845.5,2247.5 5971.5,2247.5 6097.5,2247.5C 6097.5,2373.83 6097.5,2500.17 6097.5,2626.5C 5971.5,2626.5 5845.5,2626.5 5719.5,2626.5C 5719.5,2500.17 5719.5,2373.83 5719.5,2247.5 Z M 6100.5,2247.5 C 6226.83,2247.5 6353.17,2247.5 6479.5,2247.5C 6479.5,2373.83 6479.5,2500.17 6479.5,2626.5C 6353.17,2626.5 6226.83,2626.5 6100.5,2626.5C 6100.5,2500.17 6100.5,2373.83 6100.5,2247.5 Z M 6482.5,2247.5 C 6608.5,2247.5 6734.5,2247.5 6860.5,2247.5C 6860.5,2373.83 6860.5,2500.17 6860.5,2626.5C 6734.5,2626.5 6608.5,2626.5 6482.5,2626.5C 6482.5,2500.17 6482.5,2373.83 6482.5,2247.5 Z M 6863.5,2247.5 C 6989.5,2247.5 7115.5,2247.5 7241.5,2247.5C 7241.5,2373.83 7241.5,2500.17 7241.5,2626.5C 7115.5,2626.5 6989.5,2626.5 6863.5,2626.5C 6863.5,2500.17 6863.5,2373.83 6863.5,2247.5 Z M 7244.5,2247.5 C 7370.83,2247.5 7497.17,2247.5 7623.5,2247.5C 7623.5,2373.83 7623.5,2500.17 7623.5,2626.5C 7497.17,2626.5 7370.83,2626.5 7244.5,2626.5C 7244.5,2500.17 7244.5,2373.83 7244.5,2247.5 Z M 0.5,2629.5 C 126.5,2629.5 252.5,2629.5 378.5,2629.5C 378.5,2755.5 378.5,2881.5 378.5,3007.5C 252.5,3007.5 126.5,3007.5 0.5,3007.5C 0.5,2881.5 0.5,2755.5 0.5,2629.5 Z M 381.5,2629.5 C 507.5,2629.5 633.5,2629.5 759.5,2629.5C 759.5,2755.5 759.5,2881.5 759.5,3007.5C 633.5,3007.5 507.5,3007.5 381.5,3007.5C 381.5,2881.5 381.5,2755.5 381.5,2629.5 Z M 762.5,2629.5 C 888.833,2629.5 1015.17,2629.5 1141.5,2629.5C 1141.5,2755.5 1141.5,2881.5 1141.5,3007.5C 1015.17,3007.5 888.833,3007.5 762.5,3007.5C 762.5,2881.5 762.5,2755.5 762.5,2629.5 Z M 1144.5,2629.5 C 1270.5,2629.5 1396.5,2629.5 1522.5,2629.5C 1522.5,2755.5 1522.5,2881.5 1522.5,3007.5C 1396.5,3007.5 1270.5,3007.5 1144.5,3007.5C 1144.5,2881.5 1144.5,2755.5 1144.5,2629.5 Z M 1525.5,2629.5 C 1651.5,2629.5 1777.5,2629.5 1903.5,2629.5C 1903.5,2755.5 1903.5,2881.5 1903.5,3007.5C 1777.5,3007.5 1651.5,3007.5 1525.5,3007.5C 1525.5,2881.5 1525.5,2755.5 1525.5,2629.5 Z M 1906.5,2629.5 C 2032.5,2629.5 2158.5,2629.5 2284.5,2629.5C 2284.5,2755.5 2284.5,2881.5 2284.5,3007.5C 2158.5,3007.5 2032.5,3007.5 1906.5,3007.5C 1906.5,2881.5 1906.5,2755.5 1906.5,2629.5 Z M 2287.5,2629.5 C 2413.83,2629.5 2540.17,2629.5 2666.5,2629.5C 2666.5,2755.5 2666.5,2881.5 2666.5,3007.5C 2540.17,3007.5 2413.83,3007.5 2287.5,3007.5C 2287.5,2881.5 2287.5,2755.5 2287.5,2629.5 Z M 2669.5,2629.5 C 2795.5,2629.5 2921.5,2629.5 3047.5,2629.5C 3047.5,2755.5 3047.5,2881.5 3047.5,3007.5C 2921.5,3007.5 2795.5,3007.5 2669.5,3007.5C 2669.5,2881.5 2669.5,2755.5 2669.5,2629.5 Z M 3050.5,2629.5 C 3176.5,2629.5 3302.5,2629.5 3428.5,2629.5C 3428.5,2755.5 3428.5,2881.5 3428.5,3007.5C 3302.5,3007.5 3176.5,3007.5 3050.5,3007.5C 3050.5,2881.5 3050.5,2755.5 3050.5,2629.5 Z M 3431.5,2629.5 C 3557.83,2629.5 3684.17,2629.5 3810.5,2629.5C 3810.5,2755.5 3810.5,2881.5 3810.5,3007.5C 3684.17,3007.5 3557.83,3007.5 3431.5,3007.5C 3431.5,2881.5 3431.5,2755.5 3431.5,2629.5 Z M 3813.5,2629.5 C 3939.5,2629.5 4065.5,2629.5 4191.5,2629.5C 4191.5,2755.5 4191.5,2881.5 4191.5,3007.5C 4065.5,3007.5 3939.5,3007.5 3813.5,3007.5C 3813.5,2881.5 3813.5,2755.5 3813.5,2629.5 Z M 4194.5,2629.5 C 4320.5,2629.5 4446.5,2629.5 4572.5,2629.5C 4572.5,2755.5 4572.5,2881.5 4572.5,3007.5C 4446.5,3007.5 4320.5,3007.5 4194.5,3007.5C 4194.5,2881.5 4194.5,2755.5 4194.5,2629.5 Z M 4575.5,2629.5 C 4701.83,2629.5 4828.17,2629.5 4954.5,2629.5C 4954.5,2755.5 4954.5,2881.5 4954.5,3007.5C 4828.17,3007.5 4701.83,3007.5 4575.5,3007.5C 4575.5,2881.5 4575.5,2755.5 4575.5,2629.5 Z M 4957.5,2629.5 C 5083.5,2629.5 5209.5,2629.5 5335.5,2629.5C 5335.5,2755.5 5335.5,2881.5 5335.5,3007.5C 5209.5,3007.5 5083.5,3007.5 4957.5,3007.5C 4957.5,2881.5 4957.5,2755.5 4957.5,2629.5 Z M 5338.5,2629.5 C 5464.5,2629.5 5590.5,2629.5 5716.5,2629.5C 5716.5,2755.5 5716.5,2881.5 5716.5,3007.5C 5590.5,3007.5 5464.5,3007.5 5338.5,3007.5C 5338.5,2881.5 5338.5,2755.5 5338.5,2629.5 Z M 5719.5,2629.5 C 5845.5,2629.5 5971.5,2629.5 6097.5,2629.5C 6097.5,2755.5 6097.5,2881.5 6097.5,3007.5C 5971.5,3007.5 5845.5,3007.5 5719.5,3007.5C 5719.5,2881.5 5719.5,2755.5 5719.5,2629.5 Z M 6100.5,2629.5 C 6226.83,2629.5 6353.17,2629.5 6479.5,2629.5C 6479.5,2755.5 6479.5,2881.5 6479.5,3007.5C 6353.17,3007.5 6226.83,3007.5 6100.5,3007.5C 6100.5,2881.5 6100.5,2755.5 6100.5,2629.5 Z M 6482.5,2629.5 C 6608.5,2629.5 6734.5,2629.5 6860.5,2629.5C 6860.5,2755.5 6860.5,2881.5 6860.5,3007.5C 6734.5,3007.5 6608.5,3007.5 6482.5,3007.5C 6482.5,2881.5 6482.5,2755.5 6482.5,2629.5 Z M 6863.5,2629.5 C 6989.5,2629.5 7115.5,2629.5 7241.5,2629.5C 7241.5,2755.5 7241.5,2881.5 7241.5,3007.5C 7115.5,3007.5 6989.5,3007.5 6863.5,3007.5C 6863.5,2881.5 6863.5,2755.5 6863.5,2629.5 Z M 7244.5,2629.5 C 7370.83,2629.5 7497.17,2629.5 7623.5,2629.5C 7623.5,2755.5 7623.5,2881.5 7623.5,3007.5C 7497.17,3007.5 7370.83,3007.5 7244.5,3007.5C 7244.5,2881.5 7244.5,2755.5 7244.5,2629.5 Z M 0.5,3010.5 C 126.5,3010.5 252.5,3010.5 378.5,3010.5C 378.5,3136.5 378.5,3262.5 378.5,3388.5C 252.5,3388.5 126.5,3388.5 0.5,3388.5C 0.5,3262.5 0.5,3136.5 0.5,3010.5 Z M 381.5,3010.5 C 507.5,3010.5 633.5,3010.5 759.5,3010.5C 759.5,3136.5 759.5,3262.5 759.5,3388.5C 633.5,3388.5 507.5,3388.5 381.5,3388.5C 381.5,3262.5 381.5,3136.5 381.5,3010.5 Z M 762.5,3010.5 C 888.833,3010.5 1015.17,3010.5 1141.5,3010.5C 1141.5,3136.5 1141.5,3262.5 1141.5,3388.5C 1015.17,3388.5 888.833,3388.5 762.5,3388.5C 762.5,3262.5 762.5,3136.5 762.5,3010.5 Z M 1144.5,3010.5 C 1270.5,3010.5 1396.5,3010.5 1522.5,3010.5C 1522.5,3136.5 1522.5,3262.5 1522.5,3388.5C 1396.5,3388.5 1270.5,3388.5 1144.5,3388.5C 1144.5,3262.5 1144.5,3136.5 1144.5,3010.5 Z M 1525.5,3010.5 C 1651.5,3010.5 1777.5,3010.5 1903.5,3010.5C 1903.5,3136.5 1903.5,3262.5 1903.5,3388.5C 1777.5,3388.5 1651.5,3388.5 1525.5,3388.5C 1525.5,3262.5 1525.5,3136.5 1525.5,3010.5 Z M 1906.5,3010.5 C 2032.5,3010.5 2158.5,3010.5 2284.5,3010.5C 2284.5,3136.5 2284.5,3262.5 2284.5,3388.5C 2158.5,3388.5 2032.5,3388.5 1906.5,3388.5C 1906.5,3262.5 1906.5,3136.5 1906.5,3010.5 Z M 2287.5,3010.5 C 2413.83,3010.5 2540.17,3010.5 2666.5,3010.5C 2666.5,3136.5 2666.5,3262.5 2666.5,3388.5C 2540.17,3388.5 2413.83,3388.5 2287.5,3388.5C 2287.5,3262.5 2287.5,3136.5 2287.5,3010.5 Z M 2669.5,3010.5 C 2795.5,3010.5 2921.5,3010.5 3047.5,3010.5C 3047.5,3136.5 3047.5,3262.5 3047.5,3388.5C 2921.5,3388.5 2795.5,3388.5 2669.5,3388.5C 2669.5,3262.5 2669.5,3136.5 2669.5,3010.5 Z M 3050.5,3010.5 C 3176.5,3010.5 3302.5,3010.5 3428.5,3010.5C 3428.5,3136.5 3428.5,3262.5 3428.5,3388.5C 3302.5,3388.5 3176.5,3388.5 3050.5,3388.5C 3050.5,3262.5 3050.5,3136.5 3050.5,3010.5 Z M 3431.5,3010.5 C 3557.83,3010.5 3684.17,3010.5 3810.5,3010.5C 3810.5,3136.5 3810.5,3262.5 3810.5,3388.5C 3684.17,3388.5 3557.83,3388.5 3431.5,3388.5C 3431.5,3262.5 3431.5,3136.5 3431.5,3010.5 Z M 3813.5,3010.5 C 3939.5,3010.5 4065.5,3010.5 4191.5,3010.5C 4191.5,3136.5 4191.5,3262.5 4191.5,3388.5C 4065.5,3388.5 3939.5,3388.5 3813.5,3388.5C 3813.5,3262.5 3813.5,3136.5 3813.5,3010.5 Z M 4194.5,3010.5 C 4320.5,3010.5 4446.5,3010.5 4572.5,3010.5C 4572.5,3136.5 4572.5,3262.5 4572.5,3388.5C 4446.5,3388.5 4320.5,3388.5 4194.5,3388.5C 4194.5,3262.5 4194.5,3136.5 4194.5,3010.5 Z M 4575.5,3010.5 C 4701.83,3010.5 4828.17,3010.5 4954.5,3010.5C 4954.5,3136.5 4954.5,3262.5 4954.5,3388.5C 4828.17,3388.5 4701.83,3388.5 4575.5,3388.5C 4575.5,3262.5 4575.5,3136.5 4575.5,3010.5 Z M 4957.5,3010.5 C 5083.5,3010.5 5209.5,3010.5 5335.5,3010.5C 5335.5,3136.5 5335.5,3262.5 5335.5,3388.5C 5209.5,3388.5 5083.5,3388.5 4957.5,3388.5C 4957.5,3262.5 4957.5,3136.5 4957.5,3010.5 Z M 5338.5,3010.5 C 5464.5,3010.5 5590.5,3010.5 5716.5,3010.5C 5716.5,3136.5 5716.5,3262.5 5716.5,3388.5C 5590.5,3388.5 5464.5,3388.5 5338.5,3388.5C 5338.5,3262.5 5338.5,3136.5 5338.5,3010.5 Z M 5719.5,3010.5 C 5845.5,3010.5 5971.5,3010.5 6097.5,3010.5C 6097.5,3136.5 6097.5,3262.5 6097.5,3388.5C 5971.5,3388.5 5845.5,3388.5 5719.5,3388.5C 5719.5,3262.5 5719.5,3136.5 5719.5,3010.5 Z M 6100.5,3010.5 C 6226.83,3010.5 6353.17,3010.5 6479.5,3010.5C 6479.5,3136.5 6479.5,3262.5 6479.5,3388.5C 6353.17,3388.5 6226.83,3388.5 6100.5,3388.5C 6100.5,3262.5 6100.5,3136.5 6100.5,3010.5 Z M 6482.5,3010.5 C 6608.5,3010.5 6734.5,3010.5 6860.5,3010.5C 6860.5,3136.5 6860.5,3262.5 6860.5,3388.5C 6734.5,3388.5 6608.5,3388.5 6482.5,3388.5C 6482.5,3262.5 6482.5,3136.5 6482.5,3010.5 Z M 6863.5,3010.5 C 6989.5,3010.5 7115.5,3010.5 7241.5,3010.5C 7241.5,3136.5 7241.5,3262.5 7241.5,3388.5C 7115.5,3388.5 6989.5,3388.5 6863.5,3388.5C 6863.5,3262.5 6863.5,3136.5 6863.5,3010.5 Z M 7244.5,3010.5 C 7370.83,3010.5 7497.17,3010.5 7623.5,3010.5C 7623.5,3136.5 7623.5,3262.5 7623.5,3388.5C 7497.17,3388.5 7370.83,3388.5 7244.5,3388.5C 7244.5,3262.5 7244.5,3136.5 7244.5,3010.5 Z M 0.5,3391.5 C 126.5,3391.5 252.5,3391.5 378.5,3391.5C 378.5,3517.83 378.5,3644.17 378.5,3770.5C 252.5,3770.5 126.5,3770.5 0.5,3770.5C 0.5,3644.17 0.5,3517.83 0.5,3391.5 Z M 381.5,3391.5 C 507.5,3391.5 633.5,3391.5 759.5,3391.5C 759.5,3517.83 759.5,3644.17 759.5,3770.5C 633.5,3770.5 507.5,3770.5 381.5,3770.5C 381.5,3644.17 381.5,3517.83 381.5,3391.5 Z M 762.5,3391.5 C 888.833,3391.5 1015.17,3391.5 1141.5,3391.5C 1141.5,3517.83 1141.5,3644.17 1141.5,3770.5C 1015.17,3770.5 888.833,3770.5 762.5,3770.5C 762.5,3644.17 762.5,3517.83 762.5,3391.5 Z M 1144.5,3391.5 C 1270.5,3391.5 1396.5,3391.5 1522.5,3391.5C 1522.5,3517.83 1522.5,3644.17 1522.5,3770.5C 1396.5,3770.5 1270.5,3770.5 1144.5,3770.5C 1144.5,3644.17 1144.5,3517.83 1144.5,3391.5 Z M 1525.5,3391.5 C 1651.5,3391.5 1777.5,3391.5 1903.5,3391.5C 1903.5,3517.83 1903.5,3644.17 1903.5,3770.5C 1777.5,3770.5 1651.5,3770.5 1525.5,3770.5C 1525.5,3644.17 1525.5,3517.83 1525.5,3391.5 Z M 1906.5,3391.5 C 2032.5,3391.5 2158.5,3391.5 2284.5,3391.5C 2284.5,3517.83 2284.5,3644.17 2284.5,3770.5C 2158.5,3770.5 2032.5,3770.5 1906.5,3770.5C 1906.5,3644.17 1906.5,3517.83 1906.5,3391.5 Z M 2287.5,3391.5 C 2413.83,3391.5 2540.17,3391.5 2666.5,3391.5C 2666.5,3517.83 2666.5,3644.17 2666.5,3770.5C 2540.17,3770.5 2413.83,3770.5 2287.5,3770.5C 2287.5,3644.17 2287.5,3517.83 2287.5,3391.5 Z M 2669.5,3391.5 C 2795.5,3391.5 2921.5,3391.5 3047.5,3391.5C 3047.5,3517.83 3047.5,3644.17 3047.5,3770.5C 2921.5,3770.5 2795.5,3770.5 2669.5,3770.5C 2669.5,3644.17 2669.5,3517.83 2669.5,3391.5 Z M 3050.5,3391.5 C 3176.5,3391.5 3302.5,3391.5 3428.5,3391.5C 3428.5,3517.83 3428.5,3644.17 3428.5,3770.5C 3302.5,3770.5 3176.5,3770.5 3050.5,3770.5C 3050.5,3644.17 3050.5,3517.83 3050.5,3391.5 Z M 3431.5,3391.5 C 3557.83,3391.5 3684.17,3391.5 3810.5,3391.5C 3810.5,3517.83 3810.5,3644.17 3810.5,3770.5C 3684.17,3770.5 3557.83,3770.5 3431.5,3770.5C 3431.5,3644.17 3431.5,3517.83 3431.5,3391.5 Z M 3813.5,3391.5 C 3939.5,3391.5 4065.5,3391.5 4191.5,3391.5C 4191.5,3517.83 4191.5,3644.17 4191.5,3770.5C 4065.5,3770.5 3939.5,3770.5 3813.5,3770.5C 3813.5,3644.17 3813.5,3517.83 3813.5,3391.5 Z M 4194.5,3391.5 C 4320.5,3391.5 4446.5,3391.5 4572.5,3391.5C 4572.5,3517.83 4572.5,3644.17 4572.5,3770.5C 4446.5,3770.5 4320.5,3770.5 4194.5,3770.5C 4194.5,3644.17 4194.5,3517.83 4194.5,3391.5 Z M 4575.5,3391.5 C 4701.83,3391.5 4828.17,3391.5 4954.5,3391.5C 4954.5,3517.83 4954.5,3644.17 4954.5,3770.5C 4828.17,3770.5 4701.83,3770.5 4575.5,3770.5C 4575.5,3644.17 4575.5,3517.83 4575.5,3391.5 Z M 4957.5,3391.5 C 5083.5,3391.5 5209.5,3391.5 5335.5,3391.5C 5335.5,3517.83 5335.5,3644.17 5335.5,3770.5C 5209.5,3770.5 5083.5,3770.5 4957.5,3770.5C 4957.5,3644.17 4957.5,3517.83 4957.5,3391.5 Z M 5338.5,3391.5 C 5464.5,3391.5 5590.5,3391.5 5716.5,3391.5C 5716.5,3517.83 5716.5,3644.17 5716.5,3770.5C 5590.5,3770.5 5464.5,3770.5 5338.5,3770.5C 5338.5,3644.17 5338.5,3517.83 5338.5,3391.5 Z M 5719.5,3391.5 C 5845.5,3391.5 5971.5,3391.5 6097.5,3391.5C 6097.5,3517.83 6097.5,3644.17 6097.5,3770.5C 5971.5,3770.5 5845.5,3770.5 5719.5,3770.5C 5719.5,3644.17 5719.5,3517.83 5719.5,3391.5 Z M 6100.5,3391.5 C 6226.83,3391.5 6353.17,3391.5 6479.5,3391.5C 6479.5,3517.83 6479.5,3644.17 6479.5,3770.5C 6353.17,3770.5 6226.83,3770.5 6100.5,3770.5C 6100.5,3644.17 6100.5,3517.83 6100.5,3391.5 Z M 6482.5,3391.5 C 6608.5,3391.5 6734.5,3391.5 6860.5,3391.5C 6860.5,3517.83 6860.5,3644.17 6860.5,3770.5C 6734.5,3770.5 6608.5,3770.5 6482.5,3770.5C 6482.5,3644.17 6482.5,3517.83 6482.5,3391.5 Z M 6863.5,3391.5 C 6989.5,3391.5 7115.5,3391.5 7241.5,3391.5C 7241.5,3517.83 7241.5,3644.17 7241.5,3770.5C 7115.5,3770.5 6989.5,3770.5 6863.5,3770.5C 6863.5,3644.17 6863.5,3517.83 6863.5,3391.5 Z M 7244.5,3391.5 C 7370.83,3391.5 7497.17,3391.5 7623.5,3391.5C 7623.5,3517.83 7623.5,3644.17 7623.5,3770.5C 7497.17,3770.5 7370.83,3770.5 7244.5,3770.5C 7244.5,3644.17 7244.5,3517.83 7244.5,3391.5 Z M 0.5,3773.5 C 126.5,3773.5 252.5,3773.5 378.5,3773.5C 378.5,3899.5 378.5,4025.5 378.5,4151.5C 252.5,4151.5 126.5,4151.5 0.5,4151.5C 0.5,4025.5 0.5,3899.5 0.5,3773.5 Z M 381.5,3773.5 C 507.5,3773.5 633.5,3773.5 759.5,3773.5C 759.5,3899.5 759.5,4025.5 759.5,4151.5C 633.5,4151.5 507.5,4151.5 381.5,4151.5C 381.5,4025.5 381.5,3899.5 381.5,3773.5 Z M 762.5,3773.5 C 888.833,3773.5 1015.17,3773.5 1141.5,3773.5C 1141.5,3899.5 1141.5,4025.5 1141.5,4151.5C 1015.17,4151.5 888.833,4151.5 762.5,4151.5C 762.5,4025.5 762.5,3899.5 762.5,3773.5 Z M 1144.5,3773.5 C 1270.5,3773.5 1396.5,3773.5 1522.5,3773.5C 1522.5,3899.5 1522.5,4025.5 1522.5,4151.5C 1396.5,4151.5 1270.5,4151.5 1144.5,4151.5C 1144.5,4025.5 1144.5,3899.5 1144.5,3773.5 Z M 1525.5,3773.5 C 1651.5,3773.5 1777.5,3773.5 1903.5,3773.5C 1903.5,3899.5 1903.5,4025.5 1903.5,4151.5C 1777.5,4151.5 1651.5,4151.5 1525.5,4151.5C 1525.5,4025.5 1525.5,3899.5 1525.5,3773.5 Z M 1906.5,3773.5 C 2032.5,3773.5 2158.5,3773.5 2284.5,3773.5C 2284.5,3899.5 2284.5,4025.5 2284.5,4151.5C 2158.5,4151.5 2032.5,4151.5 1906.5,4151.5C 1906.5,4025.5 1906.5,3899.5 1906.5,3773.5 Z M 2287.5,3773.5 C 2413.83,3773.5 2540.17,3773.5 2666.5,3773.5C 2666.5,3899.5 2666.5,4025.5 2666.5,4151.5C 2540.17,4151.5 2413.83,4151.5 2287.5,4151.5C 2287.5,4025.5 2287.5,3899.5 2287.5,3773.5 Z M 2669.5,3773.5 C 2795.5,3773.5 2921.5,3773.5 3047.5,3773.5C 3047.5,3899.5 3047.5,4025.5 3047.5,4151.5C 2921.5,4151.5 2795.5,4151.5 2669.5,4151.5C 2669.5,4025.5 2669.5,3899.5 2669.5,3773.5 Z M 3050.5,3773.5 C 3176.5,3773.5 3302.5,3773.5 3428.5,3773.5C 3428.5,3899.5 3428.5,4025.5 3428.5,4151.5C 3302.5,4151.5 3176.5,4151.5 3050.5,4151.5C 3050.5,4025.5 3050.5,3899.5 3050.5,3773.5 Z M 3431.5,3773.5 C 3557.83,3773.5 3684.17,3773.5 3810.5,3773.5C 3810.5,3899.5 3810.5,4025.5 3810.5,4151.5C 3684.17,4151.5 3557.83,4151.5 3431.5,4151.5C 3431.5,4025.5 3431.5,3899.5 3431.5,3773.5 Z M 3813.5,3773.5 C 3939.5,3773.5 4065.5,3773.5 4191.5,3773.5C 4191.5,3899.5 4191.5,4025.5 4191.5,4151.5C 4065.5,4151.5 3939.5,4151.5 3813.5,4151.5C 3813.5,4025.5 3813.5,3899.5 3813.5,3773.5 Z M 4194.5,3773.5 C 4320.5,3773.5 4446.5,3773.5 4572.5,3773.5C 4572.5,3899.5 4572.5,4025.5 4572.5,4151.5C 4446.5,4151.5 4320.5,4151.5 4194.5,4151.5C 4194.5,4025.5 4194.5,3899.5 4194.5,3773.5 Z M 4575.5,3773.5 C 4701.83,3773.5 4828.17,3773.5 4954.5,3773.5C 4954.5,3899.5 4954.5,4025.5 4954.5,4151.5C 4828.17,4151.5 4701.83,4151.5 4575.5,4151.5C 4575.5,4025.5 4575.5,3899.5 4575.5,3773.5 Z M 4957.5,3773.5 C 5083.5,3773.5 5209.5,3773.5 5335.5,3773.5C 5335.5,3899.5 5335.5,4025.5 5335.5,4151.5C 5209.5,4151.5 5083.5,4151.5 4957.5,4151.5C 4957.5,4025.5 4957.5,3899.5 4957.5,3773.5 Z M 5338.5,3773.5 C 5464.5,3773.5 5590.5,3773.5 5716.5,3773.5C 5716.5,3899.5 5716.5,4025.5 5716.5,4151.5C 5590.5,4151.5 5464.5,4151.5 5338.5,4151.5C 5338.5,4025.5 5338.5,3899.5 5338.5,3773.5 Z M 5719.5,3773.5 C 5845.5,3773.5 5971.5,3773.5 6097.5,3773.5C 6097.5,3899.5 6097.5,4025.5 6097.5,4151.5C 5971.5,4151.5 5845.5,4151.5 5719.5,4151.5C 5719.5,4025.5 5719.5,3899.5 5719.5,3773.5 Z M 6100.5,3773.5 C 6226.83,3773.5 6353.17,3773.5 6479.5,3773.5C 6479.5,3899.5 6479.5,4025.5 6479.5,4151.5C 6353.17,4151.5 6226.83,4151.5 6100.5,4151.5C 6100.5,4025.5 6100.5,3899.5 6100.5,3773.5 Z M 6482.5,3773.5 C 6608.5,3773.5 6734.5,3773.5 6860.5,3773.5C 6860.5,3899.5 6860.5,4025.5 6860.5,4151.5C 6734.5,4151.5 6608.5,4151.5 6482.5,4151.5C 6482.5,4025.5 6482.5,3899.5 6482.5,3773.5 Z M 6863.5,3773.5 C 6989.5,3773.5 7115.5,3773.5 7241.5,3773.5C 7241.5,3899.5 7241.5,4025.5 7241.5,4151.5C 7115.5,4151.5 6989.5,4151.5 6863.5,4151.5C 6863.5,4025.5 6863.5,3899.5 6863.5,3773.5 Z M 7244.5,3773.5 C 7370.83,3773.5 7497.17,3773.5 7623.5,3773.5C 7623.5,3899.5 7623.5,4025.5 7623.5,4151.5C 7497.17,4151.5 7370.83,4151.5 7244.5,4151.5C 7244.5,4025.5 7244.5,3899.5 7244.5,3773.5 Z"/></g>
</svg>
